- 
http://www.Speed.Cd      fast  and The Hottest Private Tracker on the net

   signup is open now

Please Seed back to make the speed Faster!!!

------------------nfo--------------------------
-








































          
          
              
              
                    
                    
                    
                    

The.Change-Up.2011.BRRip.XviD.AC3-SiC

Poster:
[img]http://img213.imageshack.us/img213/3136/mv5bmtk3ntm4ndg3of5bml5.jpg[/img]

IMDB Link: 
http://www.imdb.com/title/tt1488555/

Description:
A comedy in which a married father accidentally switches bodies with his best friend, leading to a series of wildly complex difficulties. 

MediaInfo:
General
Complete name                    : The.Change-Up.2011.UNRATED.BRRip.XviD.AC3-SiC.avi
Format                           : AVI
Format/Info                      : Audio Video Interleave
File size                        : 1.37 GiB
Duration                         : 1h 58mn
Overall bit rate                 : 1 659 Kbps

Video
ID                               : 0
Format                           : MPEG-4 Visual
Format profile                   : Advanced Simple@L5
Format settings, BVOP            : Yes
Format settings, QPel            : No
Format settings, GMC             : No warppoints
Format settings, Matrix          : Default (MPEG)
Muxing mode                      : Packed bitstream
Codec ID                         : XVID
Codec ID/Hint                    : XviD
Duration                         : 1h 58mn
Bit rate                         : 1 267 Kbps
Width                            : 720 pixels
Height                           : 304 pixels
Display aspect ratio             : 2.35:1
Frame rate                       : 23.976 fps
Color space                      : YUV
Chroma subsampling               : 4:2:0
Bit depth                        : 8 bits
Scan type                        : Progressive
Bits/(Pixel*Frame)               : 0.241
Stream size                      : 1.05 GiB (76%)
Writing library                  : XviD 64

Audio
ID                               : 1
Format                           : AC-3
Format/Info                      : Audio Coding 3
Mode extension                   : CM (complete main)
Codec ID                         : 2000
Duration                         : 1h 58mn
Bit rate mode                    : Constant
Bit rate                         : 384 Kbps
Channel(s)                       : 6 channels
Channel positions                : Front: L C R, Side: L R, LFE
Sampling rate                    : 48.0 KHz
Bit depth                        : 16 bits
Stream size                      : 325 MiB (23%)
Alignment                        : Aligned on interleaves
Interleave, duration             : 64 ms (1.53 video frames)
Interleave, preload duration     : 192 ms
Title                            : mhd-tcu-720p - [2] English


Screenshots:
[img]http://img337.imageshack.us/img337/7703/snap1wh.png[/img]
[img]http://img511.imageshack.us/img511/8232/snap2z.png[/img]
[img]http://img600.imageshack.us/img600/4190/snap3r.png[/img]
[img]http://img585.imageshack.us/img585/1212/snap4v.png[/img]
[img]http://img52.imageshack.us/img52/6978/snap5y.png[/img]


Note : did my thing. turned out nice, enjoy. 

Source: 720p MHD

Enjoy!

Respects to CaptainHomey, Cyanide, CM8, Rx, THC, ELEKTRI4KA, 
Killerhz, PA, YeFsTe, BoxSlots, MrRep and everyone in the struggle...